<?xml version="1.0" standalone="no"?>
<!DOCTYPE svg PUBLIC "-//W3C//DTD SVG 20010904//EN"
 "http://www.w3.org/TR/2001/REC-SVG-20010904/DTD/svg10.dtd">
<svg version="1.0" xmlns="http://www.w3.org/2000/svg"
 width="500.000000pt" height="294.000000pt" viewBox="0 0 500.000000 294.000000"
 preserveAspectRatio="xMidYMid meet">

<g transform="translate(0.000000,294.000000) scale(0.100000,-0.100000)"
fill="#000000" stroke="none">
<path d="M2450 2602 c0 -112 2 -131 18 -145 23 -21 52 -22 78 -3 17 13 19 30
23 140 2 79 -1 126 -7 126 -16 0 -22 -38 -22 -137 0 -104 -5 -123 -31 -123
-30 0 -39 33 -39 149 0 62 -4 112 -10 116 -6 4 -10 -39 -10 -123z"/>
<path d="M2235 2696 c-16 -11 -17 -22 -12 -82 12 -127 31 -167 76 -167 21 0
33 -6 37 -19 3 -10 10 -18 16 -18 6 0 7 7 3 18 -4 9 -6 26 -5 37 10 70 -11
205 -36 230 -19 19 -54 19 -79 1z m74 -38 c16 -46 26 -178 11 -155 -17 26 -31
20 -18 -8 15 -34 1 -46 -22 -18 -19 24 -46 172 -36 198 3 8 16 15 30 15 18 0
27 -8 35 -32z"/>
<path d="M2696 2693 c-10 -36 -48 -254 -45 -257 12 -10 89 -15 89 -6 0 5 -8
10 -17 10 -37 0 -44 14 -37 69 l7 51 33 -6 c21 -4 34 -2 34 4 0 6 -12 12 -27
14 -25 3 -28 7 -26 38 6 74 9 79 51 73 49 -7 31 12 -20 21 -30 5 -37 3 -42
-11z"/>
<path d="M2030 2647 c-62 -31 -12 -147 64 -147 19 0 56 -47 56 -71 0 -10 -9
-23 -20 -29 -17 -9 -24 -6 -44 15 -29 31 -44 17 -18 -15 33 -41 102 -23 102
27 0 43 -27 80 -67 93 -47 16 -69 34 -78 67 -6 24 8 53 26 53 4 0 17 -9 28
-21 11 -12 21 -16 25 -10 7 10 -27 51 -41 51 -5 0 -19 -6 -33 -13z"/>
<path d="M2901 2638 c-36 -98 -81 -227 -81 -237 0 -28 20 -6 35 39 10 31 22
50 32 50 13 0 15 -11 11 -60 -3 -43 -1 -61 9 -64 10 -4 13 9 13 52 0 47 4 59
21 70 24 15 49 70 49 107 0 18 -10 31 -32 45 -42 25 -47 25 -57 -2z m60 -24
c11 -13 10 -23 -2 -56 -15 -45 -38 -65 -62 -55 -15 6 -14 12 5 67 23 62 36 72
59 44z"/>
<path d="M1901 2468 c62 -124 78 -150 90 -142 13 7 -112 244 -129 244 -7 0 8
-41 39 -102z"/>
<path d="M3052 2449 c-58 -111 -72 -155 -38 -118 21 23 125 227 119 233 -13
12 -20 2 -81 -115z"/>
<path d="M1684 2456 l-28 -23 81 -112 81 -111 31 26 c43 36 40 63 -21 150 -69
101 -94 113 -144 70z m84 -30 c49 -56 92 -123 92 -144 0 -24 -27 -49 -39 -36
-27 31 -131 183 -131 192 0 10 16 20 36 21 7 1 25 -14 42 -33z"/>
<path d="M3174 2379 c-54 -54 -95 -102 -91 -105 4 -4 20 5 36 20 28 27 28 27
51 8 22 -18 23 -21 10 -51 -7 -19 -9 -36 -4 -41 5 -5 35 45 70 119 55 116 59
129 44 139 -14 9 -33 -6 -116 -89z m86 26 c0 -21 -42 -105 -53 -105 -17 0 -47
21 -47 32 0 17 71 88 87 88 7 0 13 -7 13 -15z"/>
<path d="M3688 1700 c-22 -13 -31 -60 -19 -93 8 -21 17 -27 40 -27 51 0 70 71
31 110 -22 22 -28 23 -52 10z"/>
<path d="M558 1639 c-38 -14 -43 -37 -13 -65 l25 -23 0 -342 0 -342 99 6 c63
3 110 11 130 22 57 29 61 52 61 374 0 160 -4 301 -10 315 -5 14 -20 32 -34 41
-33 22 -107 21 -141 -1 -25 -16 -29 -16 -39 -2 -16 21 -46 28 -78 17z m200
-81 c17 -17 17 -579 0 -596 -7 -7 -34 -12 -60 -12 l-48 0 0 294 c0 293 0 295
22 310 27 19 69 21 86 4z"/>
<path d="M1065 1465 c-5 -2 -23 -6 -38 -10 -16 -3 -40 -18 -53 -32 -24 -26
-24 -26 -24 -260 l0 -235 28 -28 c53 -52 151 -50 203 6 24 25 24 28 27 245 4
275 -2 292 -108 312 -14 3 -29 4 -35 2z m53 -77 c17 -17 17 -429 0 -446 -20
-20 -76 -15 -88 7 -6 12 -10 100 -10 216 0 116 4 204 10 216 12 22 68 27 88 7z"/>
<path d="M1395 1463 c-48 -10 -77 -28 -90 -54 -18 -33 -20 -170 -4 -200 5 -11
43 -41 82 -66 40 -25 75 -51 79 -57 4 -6 8 -37 8 -68 0 -62 -16 -88 -54 -88
-35 0 -46 20 -46 82 0 52 -2 58 -21 58 -47 0 -59 -17 -59 -85 0 -75 15 -97 77
-114 51 -14 77 -14 117 3 55 23 66 48 66 151 0 109 -6 120 -95 170 -75 42 -85
56 -85 124 0 53 17 81 50 81 34 0 50 -28 50 -86 0 -58 6 -63 54 -44 24 9 26
14 26 71 0 54 -3 64 -29 90 -17 16 -40 29 -54 29 -14 0 -31 2 -39 4 -7 2 -22
2 -33 -1z"/>
<path d="M1779 1459 c-29 -11 -47 -49 -23 -49 29 0 34 -41 34 -289 l0 -251 43
0 42 0 -3 241 c-2 215 -1 244 14 260 19 22 54 25 72 7 9 -9 12 -77 12 -245 0
-220 1 -234 20 -253 11 -11 26 -20 33 -20 55 1 85 41 48 66 -20 15 -21 23 -21
239 0 143 -4 233 -11 248 -22 48 -96 65 -145 32 -23 -15 -26 -15 -51 5 -29 22
-28 22 -64 9z"/>
<path d="M2240 1460 c-75 -14 -100 -50 -100 -146 0 -58 14 -74 63 -74 24 0 25
1 20 59 -5 50 -3 61 16 80 26 26 45 27 71 1 16 -16 20 -33 20 -94 l0 -73 -72
-44 c-79 -49 -105 -78 -117 -132 -27 -117 63 -212 152 -160 32 20 33 20 60 -1
21 -16 32 -18 53 -10 15 5 32 17 38 26 9 14 6 21 -12 33 -22 16 -22 20 -22
229 0 130 -4 225 -11 245 -17 48 -86 75 -159 61z m90 -404 c0 -56 -4 -79 -18
-96 -21 -25 -69 -30 -83 -9 -12 19 -11 72 0 103 9 22 74 76 93 76 5 0 8 -33 8
-74z"/>
<path d="M2503 1458 c-25 -12 -38 -48 -17 -48 29 0 34 -41 34 -289 l0 -251 40
0 40 0 0 238 0 239 24 22 c50 47 87 -5 72 -100 l-6 -40 37 3 38 3 3 87 c1 49
-2 97 -8 107 -15 30 -75 43 -115 27 -18 -8 -35 -19 -39 -24 -4 -7 -16 -1 -31
14 -26 26 -38 28 -72 12z"/>
<path d="M2930 1460 c-75 -14 -100 -50 -100 -146 0 -58 14 -74 63 -74 24 0 25
1 20 59 -5 50 -3 61 16 80 26 26 45 27 71 1 16 -16 20 -33 20 -94 l0 -73 -72
-44 c-79 -49 -105 -78 -117 -132 -27 -117 63 -212 152 -160 32 20 33 20 60 -1
21 -16 32 -18 53 -10 15 5 32 17 38 26 9 14 6 21 -12 33 -22 16 -22 20 -22
229 0 130 -4 225 -11 245 -17 48 -86 75 -159 61z m90 -404 c0 -56 -4 -79 -18
-96 -21 -25 -69 -30 -83 -9 -12 19 -11 72 0 103 9 22 74 76 93 76 5 0 8 -33 8
-74z"/>
<path d="M3199 1459 c-29 -11 -47 -49 -23 -49 29 0 34 -41 34 -289 l0 -251 43
0 42 0 -3 241 c-2 215 -1 244 14 260 19 22 54 25 72 7 9 -9 12 -77 12 -245 0
-220 1 -234 20 -253 11 -11 26 -20 33 -20 55 1 85 41 48 66 -20 15 -21 23 -21
239 0 143 -4 233 -11 248 -22 48 -96 65 -145 32 -23 -15 -26 -15 -51 5 -29 22
-28 22 -64 9z"/>
<path d="M3923 1459 c-63 -15 -83 -46 -83 -130 0 -73 11 -89 59 -89 19 0 21 6
21 64 0 68 14 96 50 96 39 0 51 -27 48 -112 l-3 -81 -70 -42 c-47 -29 -77 -55
-92 -81 -42 -72 -23 -178 36 -208 38 -20 58 -20 96 0 26 14 32 13 61 -2 38
-21 82 -12 93 19 6 14 5 23 -3 26 -33 10 -36 35 -36 259 l0 224 -29 29 c-16
16 -38 29 -48 29 -10 0 -27 2 -38 4 -11 2 -39 0 -62 -5z m81 -500 c-21 -23
-70 -25 -78 -3 -9 25 -7 83 4 104 6 11 27 31 48 45 l37 25 3 -76 c2 -61 -1
-80 -14 -95z"/>
<path d="M4295 1463 c-81 -17 -105 -55 -105 -160 0 -37 6 -79 13 -92 6 -14 43
-43 80 -66 38 -23 73 -48 78 -56 5 -8 9 -42 9 -76 0 -51 -3 -64 -19 -73 -51
-27 -81 1 -81 76 0 48 -2 54 -21 54 -47 0 -59 -17 -59 -81 0 -53 3 -64 28 -89
56 -56 170 -49 216 13 17 24 21 43 21 111 0 102 -12 122 -100 171 -36 20 -70
45 -75 55 -18 33 -12 108 10 130 23 23 33 24 61 10 15 -9 19 -22 19 -66 0 -61
14 -75 56 -56 22 11 24 17 24 76 0 59 -2 66 -31 90 -17 14 -41 26 -54 26 -13
0 -29 2 -37 4 -7 2 -22 2 -33 -1z"/>
<path d="M3537 1442 c-3 -4 -3 -18 0 -32 4 -24 7 -25 69 -22 l64 4 0 -310 c0
-333 -1 -338 -52 -330 -19 2 -24 10 -26 43 -4 46 -14 55 -51 46 -21 -6 -27
-14 -29 -46 -5 -61 5 -85 43 -101 65 -27 161 -9 184 34 7 14 11 139 11 371 l0
351 -104 0 c-58 0 -107 -3 -109 -8z"/>
<path d="M1140 235 c0 -8 7 -15 15 -15 8 0 15 7 15 15 0 8 -7 15 -15 15 -8 0
-15 -7 -15 -15z"/>
<path d="M3830 235 c0 -10 7 -15 18 -13 21 4 19 22 -2 26 -10 2 -16 -3 -16
-13z"/>
<path d="M1128 153 c6 -2 18 -2 25 0 6 3 1 5 -13 5 -14 0 -19 -2 -12 -5z"/>
</g>
</svg>
